<?xml version="1.0" encoding="UTF-8"?>
<!DOCTYPE svg PUBLIC "-//W3C//DTD SVG 1.1//EN" "http://www.w3.org/Graphics/SVG/1.1/DTD/svg11.dtd">
<!-- Creator: CorelDRAW X7 -->
<svg xmlns="http://www.w3.org/2000/svg" xml:space="preserve" width="197px" height="197px" version="1.1" style="shape-rendering:geometricPrecision; text-rendering:geometricPrecision; image-rendering:optimizeQuality; fill-rule:evenodd; clip-rule:evenodd"
viewBox="0 0 28794809 28794809"
 xmlns:xlink="http://www.w3.org/1999/xlink">
 <defs>
  <style type="text/css">
   <![CDATA[
    .str1 {stroke:#373435;stroke-width:609929}
    .str2 {stroke:#373435;stroke-width:305051}
    .str0 {stroke:#848688;stroke-width:131774}
    .fil2 {fill:none}
    .fil3 {fill:#373435}
    .fil0 {fill:#F3F9F8}
    .fil1 {fill:#4B4B4D;fill-rule:nonzero}
   ]]>
  </style>
 </defs>
 <g id="Layer_x0020_1">
  <metadata id="CorelCorpID_0Corel-Layer"/>
  <rect class="fil0 str0" x="65887" y="65887" width="28663034" height="28663034" rx="3027837" ry="3027837"/>
  <path class="fil1" d="M21340427 20800017c69346,-53955 115519,-107910 138691,-161691 23000,-53955 57759,-80932 103932,-80932l138691 40466c23173,-53955 46346,-175353 69519,-364021 22999,-188841 34586,-323727 34586,-404486 0,-53955 -5707,-249540 -17293,-586584 -11587,-337043 -17293,-667342 -17293,-990897 0,-485418 63292,-1011302 190570,-1577653 127104,-566177 190743,-1240264 190743,-2022260 0,-134886 28707,-316983 86639,-546117 57759,-229307 121398,-471930 190743,-728041 69346,-256285 132812,-498907 190571,-728042 57759,-229307 86811,-424719 86811,-586583l0 -485418c46173,-80932 86639,-168436 121398,-262856 34413,-94421 74879,-141631 121225,-141631l104105 40466c115518,0 254209,80932 416073,242623 161691,161864 265795,310239 311968,444952l381487 566351c0,53954 17293,121398 51879,202157 34586,80931 51879,134886 51879,161863l0 687576c0,26977 -17293,67443 -51879,121397 -34586,53955 -51879,94421 -51879,121398l103758 161691 -311968 364021 416073 0c0,323727 -34586,633793 -104105,930371 -69172,296577 -103758,485418 -103758,566350l0 202157 277209 -202157c0,215646 -52053,390998 -155984,525712 -103932,134886 -155985,269773 -155985,404486 0,26977 5707,53955 17294,80932 11586,26977 17466,53955 17466,80932l277209 -161864c0,53955 -28880,121398 -86639,202330 -57759,80932 -86812,134886 -86812,161691l0 525884c0,26977 -17293,67443 -51879,121398 -34586,53955 -51879,94421 -51879,121398 0,26804 17293,107736 51879,242623 34586,134886 51879,229134 51879,283088 0,134887 -92345,202330 -277209,202330l-34759 0c92518,53955 167571,175180 225503,364021 57586,188668 86465,323554 86465,404486l0 849439c0,53955 -17293,100992 -51879,141458 -34586,40466 -51879,74188 -51879,101165 0,26977 46172,114654 138518,262856 92518,148375 138691,303494 138691,465185l0 1132528 -173451 -202157c-45999,26978 -109638,80932 -190570,161864 -80932,80759 -121398,148202 -121398,202157 0,26977 28880,80932 86639,161864 57932,80759 98398,148202 121571,202156l103758 202330 0 525712c0,26977 29053,67443 86812,121398 57759,53954 86639,94420 86639,121397 0,53955 -11587,94248 -34587,121225 -23172,26978 -46345,67444 -69345,121398 -23173,53955 -46346,94421 -69519,121398l173451 0c23172,0 57932,134714 104104,404487 46173,269600 69173,485418 69173,647109 0,134886 -46173,236051 -138518,303322 -92518,67443 -196623,168608 -311968,303494l-138864 0c-46173,0 -80932,-13488 -104105,-40466 0,26978 5880,74188 17466,141458 11586,67443 17293,128142 17293,182097 0,53955 -63639,134886 -190570,242623 -127278,107909 -213916,161863 -260089,161863l-138691 -364020c-69346,107909 -161864,249367 -277382,424719 -115518,175180 -173450,289833 -173450,343788l-485246 202157c-23173,53954 -34759,94420 -34759,121398 0,26977 -11586,53954 -34586,80932l-104105 161690 -311968 0c0,-296577 -29053,-539200 -86812,-728041 -57586,-188668 -86465,-512223 -86465,-970664 0,-404486 5706,-815717 17293,-1233692 11586,-417976 17293,-667516 17293,-748275 0,-53954 -17293,-188841 -52053,-404486 -34586,-215819 -52052,-337043 -52052,-364021l0 -2062899 -381314 -161863zm1594774 -15208626l0 -202157 -415900 0c0,-80932 -34759,-168608 -104105,-263028 -69345,-94248 -103932,-195413 -103932,-303322l0 -161864c-23173,-26804 -34759,-53781 -34759,-80759l-103932 -283261 0 -121225c0,-26978 11587,-53955 34587,-80932l-242623 0c0,-107909 11413,-161864 34586,-161864l173450 -242623 0 -889905c0,-53954 17293,-134886 51880,-242623 34759,-107909 63638,-175352 86811,-202329 23000,26977 51880,40466 86639,40466 34759,0 63639,13488 86639,40466l103931 0 346728 -404487c138864,134887 208209,229134 208209,283089l-69345 121398c277209,0 577764,141630 901318,424719 323555,283089 485419,505652 485419,667342l208036 0 589523 566351c-46345,0 -80932,26977 -104104,80932 -23173,53954 -34587,94247 -34587,121225 23000,80931 57759,168608 103932,263028 46346,94248 69346,195413 69346,303322 0,296577 -115519,498907 -346728,606643 -231209,107910 -577937,202330 -1040182,283262l-173278 0c-23172,0 -80931,26977 -173450,80932 -92345,53782 -150104,80759 -173277,80759l0 -161691 138691 -161864 -589523 0zm-658696 19617512l832146 0c-208037,-53955 -346728,-107909 -416073,-161691 -115691,-80932 -196450,-148375 -242623,-202330l-173450 0 0 364021zm1698878 -10556944c-46173,0 -69345,80759 -69345,242623 0,107909 23172,161864 69345,161864 115691,0 173450,-53955 173450,-161864 0,-161864 -57759,-242623 -173450,-242623zm-2426919 11851335c69345,0 103932,67444 103932,202157 0,134887 -34587,202330 -103932,202330 -92518,0 -138691,-67443 -138691,-202330 0,-134713 46173,-202157 138691,-202157zm1976260 -22408451c-69346,0 -104105,67443 -104105,202157 0,107909 34759,161863 104105,161863 115518,0 173277,-53954 173277,-161863 0,-134714 -57759,-202157 -173277,-202157zm658869 20183689c-115692,0 -173451,67443 -173451,202330 0,134886 57759,202156 173451,202156 46172,0 69172,-67270 69172,-202156l-69172 -202330zm0 -2952631l-104105 80932c-23173,26977 -34759,80759 -34759,161691 0,215818 46345,323555 138864,323555 22999,0 34586,-94248 34586,-283089l-34586 -283089zm0 3883002c-115692,0 -173451,67443 -173451,202330 0,107736 57759,161691 173451,161691 46172,0 69172,-53955 69172,-161691l-69172 -202330zm0 -2184124c-115692,0 -173451,67271 -173451,202157 0,107909 57759,161864 173451,161864 46172,0 69172,-53955 69172,-161864l-69172 -202157zm-450833 -4853838c-115691,0 -173450,67443 -173450,202156 0,134887 57759,202330 173450,202330 23173,0 34587,-67443 34587,-202330l-34587 -202156zm-1144287 6107591c-69172,0 -103931,67443 -103931,202330 0,134886 34759,202156 103931,202156 69346,0 104105,-67270 104105,-202156l-104105 -202330zm-311968 -1617773c-46173,0 -69345,67270 -69345,202156 0,107910 23172,161864 69345,161864 92518,0 138691,-53954 138691,-161864 0,-134886 -46173,-202156 -138691,-202156zm1525601 -2062899c-46173,0 -69346,67270 -69346,202157 0,107909 23173,161863 69346,161863 92518,0 138518,-53954 138518,-161863 0,-134887 -46000,-202157 -138518,-202157zm485245 1860569c92519,0 138864,67443 138864,202330 0,107736 -46345,161690 -138864,161690 -45999,0 -69172,-53954 -69172,-161690l69172 -202330zm-901318 4449352c69345,0 104105,67443 104105,202157 0,107909 -34760,161864 -104105,161864 -69346,0 -104105,-53955 -104105,-161864l104105 -202157zm-311968 0c69345,0 103931,67443 103931,202157 0,107909 -34586,161864 -103931,161864 -69519,0 -104105,-53955 -104105,-161864l104105 -202157zm1213286 -22246761c-45999,0 -69172,53955 -69172,161864 0,134887 23173,202330 69172,202330 69519,-26978 104105,-94421 104105,-202330l-104105 -161864zm-485245 20386192l-277382 0 69345 323555 208037 -323555zm658696 1456082l-173451 0 0 -485418 173451 485418zm-2461679 -24066863c46346,0 69346,67443 69346,202329 0,107737 -23000,161691 -69346,161691 -46173,0 -69345,-53954 -69345,-161691l69345 -202329zm450832 23581445l-34759 -40466c-115518,0 -173450,40466 -173450,121398l69518 80932c115518,0 161864,-53955 138691,-161864zm2010847 -20830971c-46173,0 -69346,26977 -69346,80932 0,80931 23173,121397 69346,121397 23172,0 34759,-26977 34759,-80932l-34759 -121397zm-485419 21720876c46173,0 69346,26977 69346,80932 0,80932 -23173,121225 -69346,121225 -23173,0 -23173,-67270 0,-202157zm34759 -21518547l0 -40466c0,-26977 -23172,-40466 -69518,-40466l-34586 121398 104104 -40466z"/>
  <polyline class="fil2 str1" points="6122809,1630224 11516886,14856537 7974905,14909281 7974905,17934716 2203319,17934716 2110282,21704794 7835176,21721049 "/>
  <path class="fil2 str1" d="M12539429 17723221c2194846,1820622 2199861,3513275 143706,5085740"/>
  <path class="fil2 str1" d="M13086930 15708051c4844673,2647580 4767719,5695669 458614,9088065"/>
  <circle class="fil2 str2" cx="4400194" cy="8669546" r="1722151"/>
  <circle class="fil3 str2" cx="4400255" cy="8669464" r="687010"/>
  <line class="fil2 str1" x1="7835176" y1="21721049" x2="7134112" y2= "26465768" />
 </g>
</svg>
