<?xml version="1.0" encoding="UTF-8"?>
<!DOCTYPE svg PUBLIC "-//W3C//DTD SVG 1.1//EN" "http://www.w3.org/Graphics/SVG/1.1/DTD/svg11.dtd">
<!-- Creator: CorelDRAW X7 -->
<svg xmlns="http://www.w3.org/2000/svg" xml:space="preserve" width="197px" height="197px" version="1.1" style="shape-rendering:geometricPrecision; text-rendering:geometricPrecision; image-rendering:optimizeQuality; fill-rule:evenodd; clip-rule:evenodd"
viewBox="0 0 31969349 31969349"
 xmlns:xlink="http://www.w3.org/1999/xlink">
 <defs>
  <style type="text/css">
   <![CDATA[
    .str1 {stroke:#373435;stroke-width:677172}
    .str2 {stroke:#373435;stroke-width:338682}
    .str0 {stroke:#848688;stroke-width:146301}
    .fil2 {fill:none}
    .fil3 {fill:#373435}
    .fil0 {fill:#F3F9F8}
    .fil1 {fill:#4B4B4D;fill-rule:nonzero}
   ]]>
  </style>
 </defs>
 <g id="Layer_x0020_1">
  <metadata id="CorelCorpID_0Corel-Layer"/>
  <rect class="fil0 str0" x="73151" y="73151" width="31823047" height="31823047" rx="15911603" ry="15911603"/>
  <g id="_2009916061040">
   <path class="fil1" d="M23091235 21797179c64511,-50112 107518,-100415 129022,-150526 21504,-50111 53759,-75262 96766,-75262l129022 37631c21504,-50111 43007,-163005 64511,-338682 21504,-175485 32255,-301051 32255,-376313 0,-50111 -5376,-231932 -16127,-545655 -10752,-313530 -16128,-620724 -16128,-921775 0,-451576 59135,-940783 177405,-1467622 118270,-526838 177405,-1154091 177405,-1881566 0,-125374 26879,-294715 80638,-508023 53759,-213116 113086,-438904 177405,-677364 64511,-238268 123646,-464056 177405,-677172 53759,-213308 80638,-395129 80638,-545654l0 -451576c43008,-75263 80639,-156861 112894,-244604 32256,-87934 69887,-131709 112894,-131709l96767 37631c107518,0 236539,75263 387065,225788 150525,150525 247291,288379 290298,413944l354810 526839c0,50111 16128,112894 48383,188157 32256,75262 48383,125373 48383,150333l0 639733c0,25151 -16127,62782 -48383,112894 -32255,50303 -48383,87934 -48383,112894l96766 150525 -290298 338682 387065 0c0,301050 -32256,589621 -96767,865520 -64510,275899 -96766,451576 -96766,526839l0 188157 258044 -188157c0,200636 -48384,363833 -145150,489207 -96766,125374 -145149,250940 -145149,376313 0,24960 5376,50112 16127,75263 10752,24960 16128,50111 16128,75263l258044 -150526c0,50112 -26880,112894 -80639,188157 -53759,75263 -80639,125374 -80639,150525l0 489208c0,24959 -16127,62591 -48383,112894 -32255,50111 -48383,87742 -48383,112894 0,24959 16128,100222 48383,225788 32256,125373 48383,213116 48383,263419 0,125374 -86014,188157 -258043,188157l-32255 0c86014,50111 155901,163005 209660,338489 53759,175677 80638,301051 80638,376314l0 790258c0,50303 -16127,94078 -48383,131709 -32255,37632 -48383,69119 -48383,94079 0,25151 43007,106558 129022,244603 86014,138046 129022,282235 129022,432760l0 1053678 -161278 -188157c-43007,25152 -102142,75263 -177404,150525 -75263,75263 -112894,138046 -112894,188157 0,24960 27071,75263 80638,150525 53759,75263 91391,137854 112894,188157l96766 188157 0 489207c0,24959 26880,62591 80639,112894 53759,50111 80639,87742 80639,112894 0,50111 -10752,87742 -32256,112894 -21504,24959 -43007,62591 -64511,112894 -21503,50111 -43007,87742 -64511,112894l161278 0c21503,0 53759,125373 96766,376121 43007,250940 64511,451576 64511,602101 0,125566 -43008,219644 -129022,282235 -86015,62783 -182781,156861 -290299,282235l-129022 0c-43007,0 -75262,-12480 -96766,-37631 0,25151 5376,69119 16128,131709 10944,62783 16128,119230 16128,169341 0,50304 -59135,125566 -177405,225788 -118270,100415 -198909,150526 -241916,150526l-129022 -338682c-64510,100414 -150525,232124 -258043,395129 -107518,163005 -161277,269755 -161277,319866l-451576 188157c-21504,50111 -32063,87742 -32063,112894 0,25151 -10944,50111 -32256,75262l-96958 150526 -290299 0c0,-275899 -26879,-501687 -80639,-677364 -53759,-175677 -80638,-476536 -80638,-903152 0,-376313 5376,-758771 16128,-1147756 10751,-388793 16127,-620725 16127,-695987 0,-50303 -16127,-175677 -48383,-376314 -32255,-200828 -48383,-313722 -48383,-338681l0 -1919198 -354810 -150525zm1483750 -14148804l0 -188156 -387065 0c0,-75263 -32256,-156861 -96574,-244604 -64511,-87742 -96959,-181821 -96959,-282235l0 -150525c-21503,-25152 -32255,-50111 -32255,-75263l-96766 -263419 0 -112894c0,-25152 10751,-50111 32255,-75263l-225788 0c0,-100414 10752,-150525 32255,-150525l161278 -225788 0 -827889c0,-50111 16127,-125374 48383,-225788 32255,-100222 59135,-163005 80638,-188157 21504,25152 48575,37631 80831,37631 32063,0 58943,12672 80446,37632l96767 0 322554 -376313c129022,125565 193532,213308 193532,263419l-64510 112894c258043,0 537590,131709 838641,395129 301050,263419 451576,470391 451576,620917l193532 0 548342 526838c-43007,0 -75262,25152 -96766,75263 -21504,50111 -32255,87742 -32255,112894 21503,75263 53759,156861 96766,244603 43007,87743 64511,181821 64511,282235 0,275900 -107518,464056 -322555,564470 -215036,100223 -537590,188157 -967662,263420l-161277 0c-21504,0 -75263,24959 -161277,75262 -86015,50111 -139774,75263 -161278,75263l0 -150525 129022 -150526 -548342 0zm-612853 18250426l774130 0c-193533,-50111 -322554,-100222 -387065,-150525 -107518,-75263 -182781,-137854 -225788,-188157l-161277 0 0 338682zm1580516 -9821392c-43008,0 -64511,75262 -64511,225788 0,100414 21503,150525 64511,150525 107518,0 161277,-50111 161277,-150525 0,-150526 -53759,-225788 -161277,-225788zm-2257880 11025595c64511,0 96766,62783 96766,188156 0,125374 -32255,188157 -96766,188157 -86015,0 -129022,-62783 -129022,-188157 0,-125373 43007,-188156 129022,-188156zm1838559 -20846988c-64511,0 -96766,62783 -96766,188157 0,100414 32255,150525 96766,150525 107518,0 161277,-50111 161277,-150525 0,-125374 -53759,-188157 -161277,-188157zm612853 18777457c-107518,0 -161277,62591 -161277,187964 0,125566 53759,188157 161277,188157 43007,0 64511,-62591 64511,-188157l-64511 -187964zm0 -2747087l-96766 75262c-21312,25152 -32256,75263 -32256,150526 0,200636 43008,301050 129022,301050 21504,0 32256,-87742 32256,-263419l-32256 -263419zm0 3612415c-107518,0 -161277,62783 -161277,188157 0,100414 53759,150525 161277,150525 43007,0 64511,-50111 64511,-150525l-64511 -188157zm0 -2031899c-107518,0 -161277,62590 -161277,188156 0,100222 53759,150525 161277,150525 43007,0 64511,-50303 64511,-150525l-64511 -188156zm-419320 -4515568c-107518,0 -161277,62591 -161277,188157 0,125374 53759,188157 161277,188157 21503,0 32255,-62783 32255,-188157l-32255 -188157zm-1064429 5682139c-64511,0 -96767,62591 -96767,187964 0,125566 32256,188157 96767,188157 64511,0 96766,-62591 96766,-188157l-96766 -187964zm-290299 -1505253c-43007,0 -64511,62590 -64511,188156 0,100222 21504,150526 64511,150526 86014,0 129214,-50304 129214,-150526 0,-125566 -43200,-188156 -129214,-188156zm1419238 -1919198c-43007,0 -64510,62783 -64510,188157 0,100414 21503,150525 64510,150525 86015,0 129022,-50111 129022,-150525 0,-125374 -43007,-188157 -129022,-188157zm451576 1731041c86015,0 129022,62591 129022,188157 0,100222 -43007,150525 -129022,150525 -43007,0 -64510,-50303 -64510,-150525l64510 -188157zm-838641 4139254c64511,0 96767,62783 96767,188157 0,100414 -32256,150525 -96767,150525 -64510,0 -96766,-50111 -96766,-150525l96766 -188157zm-290298 0c64510,0 96766,62783 96766,188157 0,100414 -32256,150525 -96766,150525 -64511,0 -96767,-50111 -96767,-150525l96767 -188157zm1128939 -20696462c-43007,0 -64510,50111 -64510,150525 0,125374 21503,188157 64510,188157 64511,-25152 96767,-87743 96767,-188157l-96767 -150525zm-451576 18965421l-258043 0 64511 301051 193532 -301051zm612854 1354728l-161278 0 0 -451576 161278 451576zm-2290136 -22389872c43008,0 64511,62783 64511,188156 0,100415 -21503,150526 -64511,150526 -43007,0 -64510,-50111 -64510,-150526l64510 -188156zm419321 21938296l-32063 -37632c-107711,0 -161470,37632 -161470,112894l64511 75263c107518,0 150526,-50111 129022,-150525zm1870815 -19379366c-43008,0 -64511,24960 -64511,75263 0,75262 21503,112894 64511,112894 21503,0 32255,-25152 32255,-75263l-32255 -112894zm-451576 20207255c43199,0 64510,25152 64510,75263 0,75262 -21311,112894 -64510,112894 -21312,0 -21312,-62783 0,-188157zm32255 -20019098l0 -37632c0,-25151 -21312,-37631 -64511,-37631l-32255 112894 96766 -37631z"/>
   <polyline class="fil2 str1" points="8933984,3963193 13952199,16267869 10657154,16316828 10657154,19131498 5287778,19131498 5201187,22638891 10527172,22654059 "/>
   <path class="fil2 str1" d="M14903542 18934894c2041883,1693601 2046683,3268357 133821,4731179"/>
   <path class="fil2 str1" d="M15412909 17060047c4507119,2463124 4435504,5298721 426616,8454761"/>
   <circle class="fil2 str2" cx="7331525" cy="10511975" r="1602142"/>
   <circle class="fil3 str2" cx="7331582" cy="10511899" r="639135"/>
   <line class="fil2 str1" x1="10527172" y1="22654059" x2="9874960" y2= "27068060" />
  </g>
 </g>
</svg>
